<svg width="199" height="90" viewBox="0 0 199 90" fill="none" xmlns="http://www.w3.org/2000/svg">
<g clip-path="url(#clip0_1917_1082)">
<path d="M7.10001 43.1V19.5H9.80001L43.8 40.5V19.5H46.4V43.1H43.8L9.80001 22.1V43.1H7.10001Z" fill="white"/>
<path d="M88.1 43.1H48.8V19.5H88.1V22.1H51.4V30H88.1V32.6H51.4V40.5H88.1V43.1Z" fill="white"/>
<path d="M147.3 19.5H186.5V22.1H168.2V43.1H165.6V22.1H147.3V19.5Z" fill="white"/>
<path d="M11.5 49.4V67.5H43.3V69.8H9.3V49.4H11.5Z" fill="white"/>
<path d="M77.3 71.9H43.3V51.5H77.3V53.8H45.6V60.6H77.3V62.8H45.6V69.6H77.3V71.9Z" fill="white"/>
<path d="M81.7 51.5L96.5 69.3L96.7 69.5L111.2 51.5H113.5L97.2 71.9H95.7L79.4 51.5H81.7Z" fill="white"/>
<path d="M149.6 71.9H115.6V51.5H149.6V53.8H117.8V60.6H149.6V62.8H117.8V69.6H149.6V71.9Z" fill="white"/>
<path d="M154 51.5V69.6H185.8V71.9H151.7V51.5H154Z" fill="white"/>
<path d="M198.7 85.9H153.6V84.9H197.6V1.1H1.1V84.9H45.5V85.9H0V0H198.7V85.9Z" fill="white"/>
<path d="M64.2 81H60.8V83.4H64.1V84.7H60.8V89.3H59.4V79.7H64.2V81Z" fill="white"/>
<path d="M66.9 84.5C66.9 85.6 67.3 86.4 68 87.1C68.7 87.8 69.5 88.1 70.5 88.1C71.5 88.1 72.4 87.7 73.1 87C73.8 86.3 74.1 85.4 74.1 84.4C74.1 83.4 73.8 82.5 73.1 81.8C72.4 81.1 71.6 80.8 70.6 80.8C69.6 80.8 68.7 81.1 68 81.8C67.3 82.6 66.9 83.4 66.9 84.5ZM65.4 84.4C65.4 83 65.9 81.9 66.9 80.9C67.9 79.9 69.1 79.4 70.5 79.4C71.9 79.4 73.1 79.9 74 80.9C75 81.9 75.5 83.1 75.5 84.5C75.5 85.9 75 87.1 74 88C73 89 71.8 89.5 70.4 89.5C69.2 89.5 68 89.1 67 88.2C66 87.3 65.4 86 65.4 84.4Z" fill="white"/>
<path d="M78.9 84.1H79.4C80.8 84.1 81.5 83.6 81.5 82.5C81.5 81.5 80.8 81 79.5 81H79V84.1H78.9ZM80.7 85.2L83.7 89.3H81.9L79.1 85.3H78.8V89.3H77.3V79.6H79C80.3 79.6 81.2 79.8 81.8 80.3C82.4 80.8 82.7 81.5 82.7 82.4C82.7 83.1 82.5 83.7 82.1 84.2C81.8 84.8 81.3 85.1 80.7 85.2Z" fill="white"/>
<path d="M84.8 89.3L86.8 78.9L90.2 86.4L93.6 78.9L95.4 89.3H93.9L93 83.5L90.1 89.8L87.3 83.5L86.3 89.3H84.8Z" fill="white"/>
<path d="M102.6 85.6L101.2 82.3L99.7 85.6H102.6ZM103.2 87H99L97.9 89.4H96.3L101.1 79.1L105.7 89.4H104.1L103.2 87Z" fill="white"/>
<path d="M113.7 80.2V81.9C112.9 81.2 112 80.8 111.1 80.8C110.1 80.8 109.3 81.2 108.6 81.9C107.9 82.6 107.6 83.5 107.6 84.5C107.6 85.5 107.9 86.4 108.6 87.1C109.3 87.8 110.1 88.1 111.1 88.1C111.6 88.1 112.1 88 112.4 87.9C112.6 87.8 112.8 87.7 113 87.6C113.2 87.5 113.4 87.3 113.7 87.1V88.9C112.9 89.4 112 89.6 111.1 89.6C109.7 89.6 108.5 89.1 107.6 88.2C106.6 87.2 106.1 86.1 106.1 84.7C106.1 83.5 106.5 82.4 107.3 81.4C108.3 80.2 109.6 79.6 111.2 79.6C112 79.5 112.9 79.7 113.7 80.2Z" fill="white"/>
<path d="M117 79.7H115.5V89.4H117V79.7Z" fill="white"/>
<path d="M126.1 77.1L123.5 78.8L122.8 78.2L124.8 76.2L126.1 77.1ZM120.3 84.5C120.3 85.6 120.7 86.4 121.4 87.1C122.1 87.8 122.9 88.1 123.9 88.1C124.9 88.1 125.8 87.7 126.5 87C127.2 86.3 127.5 85.4 127.5 84.4C127.5 83.4 127.2 82.5 126.5 81.8C125.8 81.1 125 80.8 124 80.8C123 80.8 122.1 81.1 121.4 81.8C120.7 82.6 120.3 83.4 120.3 84.5ZM118.8 84.4C118.8 83 119.3 81.9 120.3 80.9C121.3 79.9 122.5 79.4 123.9 79.4C125.3 79.4 126.5 79.9 127.4 80.9C128.4 81.9 128.9 83.1 128.9 84.5C128.9 85.9 128.4 87.1 127.4 88C126.4 89 125.2 89.5 123.8 89.5C122.5 89.5 121.4 89.1 120.4 88.2C119.4 87.3 118.8 86 118.8 84.4Z" fill="white"/>
<path d="M130.8 89.3V79L137.9 86.4V79.7H139.3V89.9L132.3 82.6V89.3H130.8Z" fill="white"/>
<path d="M151.5 11.3H143L119.8 27.4L96.6 11.3H88.2L115.6 30.3L88.2 49.3H96.6L119.8 33.3L143 49.3H151.5L124.1 30.3L151.5 11.3Z" fill="white"/>
</g>
<defs>
<clipPath id="clip0_1917_1082">
<rect width="198.7" height="89.9" fill="white"/>
</clipPath>
</defs>
</svg>
